<?xml version="1.0" encoding="utf-8"?>
<!-- Generator: Adobe Illustrator 21.0.0, SVG Export Plug-In . SVG Version: 6.00 Build 0)  -->
<svg version="1.1" id="Layer_1" xmlns="http://www.w3.org/2000/svg" xmlns:xlink="http://www.w3.org/1999/xlink" x="0px" y="0px"
	 viewBox="0 0 132 137" style="enable-background:new 0 0 132 137;" xml:space="preserve">
<style type="text/css">
	.st0{fill:#C01950;}
</style>
<g>
	<path class="st0" d="M114.8,41.6v-1.8c0-13.1-10.6-23.7-23.7-23.7h-40c-22.9,0-33.7,18.5-33.8,31.2c0,0.6-0.1,1.1-0.1,1.7
		c0,6.2,2.3,12.1,6.5,16.6l-3.2,53.6c-0.1,1,0.7,1.8,1.6,1.9c0,0,0.1,0,0.1,0h79c0.5,0,0.9-0.2,1.3-0.5c0.1-0.1,0.2-0.2,0.2-0.4
		l9.9-8.7c0.4-0.4,0.6-0.9,0.6-1.4l-3.3-53.7l0.1-0.1C113.1,51.9,114.8,46.8,114.8,41.6z M24.1,117.5L27.2,65c0-0.5-0.2-1-0.5-1.3
		c-3.9-3.9-6.1-9.2-6.1-14.7c0-0.5,0-1,0.1-1.5l0,0c0-0.2,0-0.5,0-0.7c1.1-10.3,9.8-18.1,20.1-18.1h40c11.2,0,20.2,9.1,20.2,20.2
		v1.8c0,4.5-1.5,8.8-4.1,12.4l-0.4,0.6c-0.2,0.3-0.4,0.7-0.3,1.2l3.2,52.5H24.1z M109.6,109.2l-6.9,6.1l-3-49.9l0.1-0.1
		c3.1-4.2,4.8-9.3,4.8-14.5V49c0-13.1-10.6-23.7-23.7-23.7h-40c-4.2,0-8.4,1.1-12,3.3c5.8-6,13.9-9.2,22.2-9h40
		c11.2,0,20.2,9.1,20.2,20.2v1.8c0,4.5-1.5,8.8-4.1,12.4l-0.4,0.6c-0.2,0.3-0.4,0.7-0.3,1.2L109.6,109.2z"/>
	
		<rect x="25.8" y="43.2" transform="matrix(0.7071 -0.7071 0.7071 0.7071 -18.7595 44.5085)" class="st0" width="37.1" height="3.5"/>
	
		<rect x="21.3" y="38.8" transform="matrix(0.7071 -0.7071 0.7071 0.7071 -19.5064 33.9563)" class="st0" width="19.8" height="3.5"/>
	
		<rect x="22.9" y="51.9" transform="matrix(0.7071 -0.7071 0.7071 0.7071 -22.8898 52.0147)" class="st0" width="56.9" height="3.5"/>
	
		<rect x="19.3" y="62.4" transform="matrix(0.7071 -0.7071 0.7071 0.7071 -27.7473 61.2695)" class="st0" width="81.6" height="3.5"/>
	<rect x="15.7" y="75.5" transform="matrix(0.7071 -0.7071 0.7071 0.7071 -36.2483 66.9639)" class="st0" width="94" height="3.5"/>
	
		<rect x="36.1" y="89.5" transform="matrix(0.7203 -0.6936 0.6936 0.7203 -44.031 73.2557)" class="st0" width="65.5" height="3.5"/>
	<rect x="56.8" y="97.6" transform="matrix(0.7199 -0.694 0.694 0.7199 -47.1164 81.8783)" class="st0" width="42.2" height="3.5"/>
	
		<rect x="79.4" y="106.1" transform="matrix(0.7071 -0.7071 0.7071 0.7071 -50.4607 93.8539)" class="st0" width="17.3" height="3.5"/>
</g>
</svg>
