<?xml version="1.0" encoding="utf-8"?>
<!-- Generator: Adobe Illustrator 21.0.0, SVG Export Plug-In . SVG Version: 6.00 Build 0)  -->
<svg version="1.1" id="Layer_1" xmlns="http://www.w3.org/2000/svg" xmlns:xlink="http://www.w3.org/1999/xlink" x="0px" y="0px"
	 viewBox="0 0 132 137" style="enable-background:new 0 0 132 137;" xml:space="preserve">
<style type="text/css">
	.st0{fill:#C01950;}
</style>
<g>
	<path class="st0" d="M39.1,114.4c-17.1,0-31-13.9-31-31c0-17.1,13.9-31,31-31c17.1,0,51.1,13.4,51.1,31
		C90.2,101.1,56.1,114.4,39.1,114.4L39.1,114.4z M39.1,56c-15.2,0-27.5,12.3-27.5,27.5c0,15.1,12.3,27.5,27.5,27.5
		c15.7,0,47.6-12.7,47.6-27.5C86.7,68.7,54.7,56,39.1,56L39.1,56z M39.1,56"/>
	<path class="st0" d="M112.3,102.9c-6.2,0-11.3-5-11.6-11.2H86.7c-1,0-1.8-0.8-1.8-1.7c0-1,0.8-1.8,1.8-1.8h15.9
		c0.5,0,1,0.2,1.3,0.6c0.3,0.4,0.5,0.9,0.4,1.4c-0.1,0.5-0.1,0.8-0.1,1.1c0,4.5,3.6,8.1,8.1,8.1c4.4,0,8.1-3.6,8.1-8.1
		c0-2.5-1.2-4.9-3.3-6.4c-0.4-0.3-0.7-0.9-0.7-1.4c0-0.5,0.3-1.1,0.7-1.4c2.1-1.5,3.3-3.9,3.3-6.4c0-4.5-3.6-8.1-8.1-8.1
		c-4.5,0-8.1,3.6-8.1,8.1c0,0.3,0.1,0.6,0.1,0.9c0.1,0.5-0.1,1.1-0.4,1.5c-0.3,0.4-0.8,0.7-1.3,0.7H86.7c-1,0-1.8-0.8-1.8-1.8
		c0-1,0.8-1.7,1.8-1.7h14.1c0.2-6.2,5.3-11.2,11.6-11.2c6.4,0,11.6,5.2,11.6,11.6c0,2.9-1.1,5.7-3.1,7.8c2,2.1,3.1,4.9,3.1,7.8
		C123.9,97.7,118.7,102.9,112.3,102.9L112.3,102.9z M112.3,102.9"/>
	<g>
		<path class="st0" d="M20.5,78.7c-0.2,0-0.3,0-0.5-0.1c-0.9-0.3-1.5-1.2-1.2-2.2c2.5-8.8,9.2-10.9,9.5-10.9
			c0.9-0.3,1.9,0.3,2.2,1.2c0.3,0.9-0.3,1.9-1.2,2.2c-0.2,0.1-5.2,1.7-7.1,8.5C21.9,78.2,21.2,78.7,20.5,78.7L20.5,78.7z M20.5,78.7
			"/>
		<path class="st0" d="M59.3,45.4c-0.5,0-1-0.2-1.3-0.6c-3-3.4-3-8.5,0-11.9c1.8-2.1,1.8-5.3,0-7.4c-0.6-0.7-0.6-1.8,0.2-2.5
			c0.7-0.6,1.9-0.6,2.5,0.2c3,3.4,3,8.5,0,11.9c-1.8,2.1-1.8,5.3,0,7.4c0.6,0.7,0.6,1.8-0.2,2.5C60.1,45.3,59.7,45.4,59.3,45.4
			L59.3,45.4z M59.3,45.4"/>
		<path class="st0" d="M43.4,45.4c-0.5,0-1-0.2-1.3-0.6c-3-3.4-3-8.5,0-11.9c1.8-2.1,1.8-5.3,0-7.4c-0.6-0.7-0.6-1.8,0.2-2.5
			c0.7-0.6,1.8-0.6,2.5,0.2c3,3.4,3,8.5,0,11.9c-1.8,2.1-1.8,5.3,0,7.4c0.7,0.7,0.6,1.8-0.2,2.5C44.3,45.3,43.8,45.4,43.4,45.4
			L43.4,45.4z M43.4,45.4"/>
		<path class="st0" d="M27.6,45.4c-0.5,0-1-0.2-1.3-0.6c-3-3.4-3-8.5,0-11.9c1.8-2.1,1.8-5.3,0-7.4c-0.6-0.7-0.6-1.8,0.2-2.5
			c0.7-0.6,1.8-0.6,2.5,0.2c3,3.4,3,8.5,0,11.9c-1.8,2.1-1.8,5.3,0,7.4c0.6,0.7,0.5,1.8-0.2,2.5C28.4,45.3,28,45.4,27.6,45.4
			L27.6,45.4z M27.6,45.4"/>
	</g>
</g>
</svg>
