<?xml version="1.0" encoding="utf-8"?>
<!-- Generator: Adobe Illustrator 21.0.0, SVG Export Plug-In . SVG Version: 6.00 Build 0)  -->
<svg version="1.1" id="Layer_1" xmlns="http://www.w3.org/2000/svg" xmlns:xlink="http://www.w3.org/1999/xlink" x="0px" y="0px"
	 viewBox="0 0 132 137" style="enable-background:new 0 0 132 137;" xml:space="preserve">
<style type="text/css">
	.st0{fill:#C01950;}
</style>
<g>
	<g>
		<path class="st0" d="M91.4,33.4l0-13.5c0-1.2-1-2.2-2.2-2.2l-46.1-0.1c-1.2,0-2.2,1-2.2,2.2l0,13.5c-4.6,3.1-7.7,8.3-7.7,14.3
			L33,111.2c0,4.4,3.6,8.1,8.1,8.1l49.7,0.1c4.5,0,8.1-3.6,8.1-8.1L99,47.8C99,41.8,96,36.5,91.4,33.4L91.4,33.4z M53,22.1l5.8,0
			l0,8.4l-5.8,0L53,22.1z M63.2,22.1l5.8,0l0,8.4l-5.8,0L63.2,22.1z M73.5,22.1l5.8,0l0,8.4l-5.8,0L73.5,22.1z M86.9,30.5l-3.3,0
			l0-8.4l3.3,0L86.9,30.5z M45.3,22l3.3,0l0,8.4l-3.3,0L45.3,22z M50.4,34.8l31.4,0.1c7.1,0,12.8,5.8,12.8,12.9l0,0.8
			c-2.6-1-7.2-2.3-12.2-1.4c-2.5,0.5-5.1,1.4-7.5,2.2c-4.8,1.7-9.3,3.2-13.9,2.2c-1.8-0.4-3.5-1-5.2-1.5c-5.3-1.7-10.7-3.4-18.2-1.3
			l0-1.1C37.6,40.6,43.4,34.8,50.4,34.8L50.4,34.8z M90.8,115l-49.7-0.1c-2,0-3.6-1.6-3.6-3.7l0.1-58.8c7-2.3,11.9-0.7,17.1,1
			c1.8,0.6,3.6,1.2,5.5,1.6c1.3,0.3,2.6,0.4,3.9,0.4c4.2,0,8.1-1.4,12-2.7c2.4-0.9,4.7-1.7,7-2.1c5.2-1,10,1,11.6,1.8l-0.1,58.9
			C94.4,113.3,92.8,115,90.8,115L90.8,115z M90.8,115"/>
	</g>
	<path class="st0" d="M82.7,59.8H49.4c-3.3,0-6,2.7-6,6v32.2c0,3.3,2.7,6,6,6h33.3c3.3,0,6-2.7,6-6V65.9
		C88.7,62.6,86,59.8,82.7,59.8L82.7,59.8z M84.3,98.1c0,0.9-0.7,1.6-1.6,1.6H49.4c-0.9,0-1.6-0.7-1.6-1.6V65.9
		c0-0.9,0.7-1.6,1.6-1.6h33.3c0.9,0,1.6,0.7,1.6,1.6V98.1z M84.3,98.1"/>
	<path class="st0" d="M74.9,82.8c-1.1-7.2-5-10.7-8.2-12.5c-3.6-2-7.1-2-7.2-2c-1,0-1.8,0.8-1.8,1.7l-0.2,12.8c-2.3,0.7-4,2.9-4,5.5
		c0,3.2,2.6,5.8,5.8,5.8c3.2,0,5.8-2.6,5.8-5.8c0-2.6-1.7-4.7-4-5.5l0.2-10.8c3,0.6,8.7,2.8,10.1,10.9c-2.2,0.8-3.8,2.9-3.8,5.4
		c0,3.2,2.6,5.8,5.8,5.8s5.8-2.6,5.8-5.8C79.1,85.8,77.3,83.5,74.9,82.8L74.9,82.8z M59.2,90.7c-1.2,0-2.3-1-2.3-2.3
		c0-1.2,1-2.3,2.3-2.3c1.2,0,2.3,1,2.3,2.3C61.5,89.6,60.5,90.7,59.2,90.7L59.2,90.7z M73.3,90.7c-1.2,0-2.3-1-2.3-2.3
		c0-1.2,1-2.2,2.2-2.3h0c0,0,0,0,0,0c1.2,0,2.3,1,2.3,2.3C75.6,89.6,74.5,90.7,73.3,90.7L73.3,90.7z M73.3,90.7"/>
</g>
</svg>
