<?xml version="1.0" encoding="utf-8"?>
<!-- Generator: Adobe Illustrator 21.0.0, SVG Export Plug-In . SVG Version: 6.00 Build 0)  -->
<svg version="1.1" id="Layer_1" xmlns="http://www.w3.org/2000/svg" xmlns:xlink="http://www.w3.org/1999/xlink" x="0px" y="0px"
	 viewBox="0 0 132 137" style="enable-background:new 0 0 132 137;" xml:space="preserve">
<style type="text/css">
	.st0{fill:#C01950;}
</style>
<g>
	<path class="st0" d="M119.6,60.8c-0.1-0.5-0.3-0.9-0.7-1.2c-3.5-3-4.1-6.2-4.6-8.9l-0.1-0.3c-0.2-0.9-0.9-1.6-1.8-1.7
		c-0.3,0-0.6-0.1-1-0.1c-2,0-4.9,0.9-6.7,2.8c-0.3,0.3-0.5,0.7-0.6,1.2c-0.2,1.1-0.2,2.2-0.3,3.1c-0.3,3.5-0.5,3.8-1.5,4.2
		c-0.7,0.2-1.2,0.7-1.4,1.4c-1,3.2-2.3,6.3-3.9,9.2c-0.8-1.5-1.7-2.9-2.5-4.1c-2-3.1-3.6-5.5-3-8.5c1.7-9.8,0.9-17.2-2.6-21.9
		c-1.9-2.6-4.7-4.5-8-5.3c0.7-5.2,4.3-7.6,6.3-8.1c1.1-0.3,1.8-1.5,1.5-2.6c-0.3-1.1-1.5-1.8-2.6-1.5c-4.1,1.1-8.5,5.2-9.4,11.7
		c-3.4,0-6.5,1-9,3c-4.6,3.7-7.4,10.6-8.3,20.4c-0.3,3-2.2,4.7-4.8,7.1c-2.2,2-4.6,4.1-6.5,7.4c-2.4-1-5-1.6-7.7-1.8
		c0.8-5,4.3-7.3,6.2-7.8c1.1-0.3,1.8-1.5,1.5-2.6c-0.3-1.1-1.5-1.8-2.6-1.5c-1.1,0.3-2.1,0.8-3.2,1.4c-0.5-2.4-1.7-4.6-3.4-6.4
		c-2.4-2.4-5.5-3.7-8.9-3.7c-1.1,0-2.2,0.1-3.2,0.4c-0.7,0.2-1.3,0.8-1.5,1.5c-1.2,4.3,0.1,9,3.2,12.1c2.2,2.2,5.1,3.5,8.1,3.6
		C36.5,64,36.3,65,36.2,66c-13.7,1-24.5,12.5-24.5,26.4c0,14.6,11.9,26.5,26.5,26.5c5.4,0,10.6-1.6,15-4.7c0.7,0.3,1.4,0.6,2.1,0.9
		c6.4,2.5,12.8,3.8,19.2,3.8c10.2,0,19.7-3.3,27.4-9.6c8.1-6.6,14-16.3,17.2-28.2C120.1,77.2,121,68,119.6,60.8z M57.5,63.6
		c2.9-2.6,5.8-5.2,6.2-9.9c0.8-8.6,3-14.5,6.7-17.5c2.2-1.7,4.9-2.4,8-2c3.1,0.4,5.5,1.8,7.1,4c2.8,3.8,3.4,10.1,1.9,18.7
		c-0.8,4.7,1.4,8.2,3.6,11.6c1.2,1.9,2.5,3.9,3.3,6.2c-7.1,10.3-18,17.9-29.9,20.6c0.1-0.9,0.2-1.9,0.2-2.9c0-9.6-5.1-18-12.7-22.6
		C53.5,67.1,55.5,65.3,57.5,63.6z M29.2,49.8c0.3,0,0.6,0,0.9,0c2.2,0,4.3,0.9,5.9,2.4c1.8,1.8,2.6,4.3,2.4,6.8c-0.3,0-0.6,0-0.9,0
		h0c-2.2,0-4.3-0.9-5.9-2.4C29.8,54.7,29,52.2,29.2,49.8z M38.2,114.6c-12.3,0-22.2-10-22.2-22.2s10-22.2,22.2-22.2
		c12.3,0,22.2,10,22.2,22.2c0,1.2-0.1,2.4-0.3,3.6c-1.4,0.2-2.7,0.3-4.1,0.3c0.3-1.3,0.4-2.6,0.4-4c0-2.4-0.5-4.7-1.4-6.9
		c-0.4-1.1-1.7-1.6-2.8-1.2c-1.1,0.4-1.6,1.7-1.2,2.8c0.7,1.7,1,3.5,1,5.3c0,1.3-0.2,2.6-0.6,3.9c-3-0.2-6.1-0.7-9.1-1.5
		c-0.6-0.2-1.3,0-1.8,0.3c-1.9,1.3-3.8,3-4.9,6.2c-0.3,0.8,0,1.8,0.6,2.3c3.9,3.3,8,6,12.2,8.3C45.5,113.7,41.9,114.6,38.2,114.6z
		 M114.9,79.9c-5.8,21.7-20.9,34.7-40.4,34.7c-11.4,0-23.4-4.7-34-13.2c0.6-1,1.3-1.7,2-2.3c4,1,8,1.5,12.1,1.5
		c11.4,0,22.4-3.9,31.7-11.2c4.8-3.7,8.9-8.2,12.2-13.2c0-0.1,0.1-0.1,0.1-0.2c2.6-4,4.7-8.2,6.2-12.7c3-1.5,3.2-4.5,3.4-7.5
		c0.1-0.7,0.1-1.4,0.2-2.1c0.6-0.4,1.3-0.7,2.1-0.9c0.6,2.7,1.7,6.2,5.1,9.4C116.6,68.5,115.9,76.4,114.9,79.9z"/>
	<path class="st0" d="M78.5,42.5c1.5,0.6,2.4,5.3,1,12.9c-0.2,1.2,0.6,2.3,1.7,2.5c0.1,0,0.3,0,0.4,0c1,0,1.9-0.7,2.1-1.8
		c1.2-6.8,1.6-15.4-3.6-17.6c-1.1-0.5-2.3,0.1-2.8,1.1C76.9,40.8,77.4,42.1,78.5,42.5z"/>
	<path class="st0" d="M91.2,98.9C91.2,98.9,91.1,98.9,91.2,98.9c-1,0.7-1.2,2-0.5,3c0.4,0.6,1.1,0.9,1.7,0.9c0.4,0,0.9-0.1,1.3-0.4
		l0,0c0.9-0.7,1.1-2,0.4-3C93.4,98.4,92.1,98.2,91.2,98.9z"/>
	<path class="st0" d="M86.4,101.8c-7.3,3.7-13.4,3.6-13.5,3.6c-1.2,0-2.2,0.9-2.2,2c0,1.2,0.9,2.2,2,2.2c0,0,0.1,0,0.3,0
		c1.5,0,7.8-0.2,15.2-4c1-0.5,1.5-1.8,0.9-2.9C88.7,101.7,87.4,101.3,86.4,101.8z"/>
	<path class="st0" d="M48.1,82.5c0.4,0.4,1,0.6,1.5,0.6c0.5,0,1.1-0.2,1.5-0.6c0.8-0.8,0.8-2.2,0-3l-0.1-0.1c-0.8-0.8-2.2-0.8-3,0
		C47.3,80.3,47.3,81.6,48.1,82.5L48.1,82.5z"/>
</g>
</svg>
