<?xml version="1.0" encoding="utf-8"?>
<!-- Generator: Adobe Illustrator 21.0.0, SVG Export Plug-In . SVG Version: 6.00 Build 0)  -->
<svg version="1.1" id="Layer_1" xmlns="http://www.w3.org/2000/svg" xmlns:xlink="http://www.w3.org/1999/xlink" x="0px" y="0px"
	 viewBox="0 0 132 137" style="enable-background:new 0 0 132 137;" xml:space="preserve">
<style type="text/css">
	.st0{fill:#C01950;}
</style>
<g>
	<g>
		<path class="st0" d="M118,42.6c-4.1-10-11.6-23-24.6-28.1c-9.5-3.8-20.6-2.9-32.9,2.7c-15.3,7-20.4,19.5-14.1,35.3
			c1.9,4.9,1.2,10.2-2,14.3c-3.2,4.1-8.2,6.1-13.4,5.4c-8.3-1.1-14.7,0.8-18.5,5.4C9.6,81,7.1,87.8,11.3,99.9l0.1,0.2
			c0.3,0.7,7.6,16.2,26.4,22.3c4.1,1.3,8.2,1.7,12.3,2.1l0.6,0.1c1.4,0.1,3.7,0.3,6.7,0.3c7.6,0,19.5-1,31.3-5.9
			c17.2-7.1,28.2-19.8,32.5-37.8C124.3,68.6,123.2,55.3,118,42.6L118,42.6z M117,80.2c-4,16.5-14.1,28.2-29.9,34.7
			c-15.6,6.5-31.5,5.7-36,5.3l-0.6-0.1c-4-0.3-7.7-0.7-11.3-1.9C22.9,112.9,16,99.6,15.4,98.4c-2.7-7.9-2.5-14.3,0.5-18.1
			c2.8-3.4,7.8-4.7,14.5-3.8c6.8,0.9,13.3-1.7,17.5-7c4.1-5.3,5.1-12.2,2.6-18.6c-5.4-13.6-1.4-23.6,11.9-29.7
			c11.1-5.1,21-6,29.4-2.6c11.6,4.6,18.4,16.5,22.2,25.7C118.8,56.1,119.8,68.5,117,80.2L117,80.2z M117,80.2"/>
	</g>
	<path class="st0" d="M82.6,52.8c6,0,11-4.9,11-11c0-6.1-4.9-11-11-11c-6.1,0-11,4.9-11,11C71.6,47.9,76.5,52.8,82.6,52.8L82.6,52.8
		z M82.6,35.3c3.6,0,6.6,2.9,6.6,6.6c0,3.6-3,6.6-6.6,6.6c-3.6,0-6.6-2.9-6.6-6.6C76,38.2,78.9,35.3,82.6,35.3L82.6,35.3z
		 M82.6,35.3"/>
	<path class="st0" d="M114,64.8c-0.3-6.3-1.6-12.6-4.1-18.8c-9.5-23.5-25.2-30.6-46.5-20.9c-4.3,1.9-17.2,7.9-10.2,25.6
		c2.6,6.4,1.8,13.4-2,19c-4.3,6.4-11.9,9.7-19.6,8.7c-5.8-0.8-10.1,0.4-12.1,3.2c-2.1,3-2.1,8.2,0.1,14.6l0.1,0.3
		c1.1,2.1,7.3,13,21.3,17.7c3.2,1.1,6.7,1.4,10.3,1.7l0.6,0.1c1.9,0.2,3.9,0.2,5.9,0.2c41.5,0,52.2-25.8,54.9-36.9
		c1.1-4.6,1.5-9.2,1.4-14C114.1,65.1,114.1,65,114,64.8L114,64.8z M65.3,29.1c5.6-2.5,10.7-3.8,15.2-3.8c10.8,0,19.3,7.5,25.3,22.4
		c1.8,4.5,2.9,9,3.5,13.5c-9.8-2.8-27.3,5.9-30.2,7.4c-13.1,4.2-19.2-1.8-20.9-3.9c1.4-5,1.1-10.4-1-15.6
		C52.5,36.8,58.6,32.1,65.3,29.1L65.3,29.1z M54.8,72.2c0.7-1,1.2-2,1.7-3c2.6,2.4,7.1,5.2,14.2,5.2c2.9,0,6.2-0.5,9.9-1.7
		c0.1,0,0.2-0.1,0.3-0.1c8.7-4.5,23.6-10,28.7-6.4c0.1,4.1-0.3,8.1-1.3,12.1c0,0.1,0,0.2-0.1,0.3c-4.8-1.4-16.4-2.7-35.5,6.5
		c-6.6,3.1-12.2,3.8-16.8,1.8c-4.4-1.9-6.9-5.7-8-7.9C50.6,77.1,53,74.9,54.8,72.2L54.8,72.2z M52.3,111.5l-0.6-0.1
		c-3.4-0.3-6.7-0.6-9.3-1.5c-12.2-4-17.8-13.7-18.7-15.4c-1.9-5.7-1.5-9.1-0.6-10.5c1-1.3,4-1.9,8-1.4c4.4,0.6,8.7,0,12.6-1.6
		c0.1,0.7,0.3,1.5,0.4,2.4c1.1,7.6,5.4,14.5,11.7,18.9c4.5,3.1,7.6,5.9,7.7,9.1c-1.8,0.1-3.7,0.2-5.6,0.2
		C55.9,111.7,54,111.7,52.3,111.5L52.3,111.5z M67.8,111.1c-0.4-6-6.2-10-9.6-12.3c-3.9-2.7-6.8-6.4-8.5-10.8c1.3,1.1,2.8,2,4.6,2.8
		c5.8,2.5,12.7,1.8,20.5-1.9c18-8.6,28.5-7.3,32.3-6.2C103.4,92.7,93.7,108,67.8,111.1L67.8,111.1z M67.8,111.1"/>
</g>
</svg>
