<?xml version="1.0" encoding="utf-8"?>
<!-- Generator: Adobe Illustrator 21.0.0, SVG Export Plug-In . SVG Version: 6.00 Build 0)  -->
<svg version="1.1" id="Layer_1" xmlns="http://www.w3.org/2000/svg" xmlns:xlink="http://www.w3.org/1999/xlink" x="0px" y="0px"
	 viewBox="0 0 132 137" style="enable-background:new 0 0 132 137;" xml:space="preserve">
<style type="text/css">
	.st0{fill:#C01950;}
</style>
<g>
	<g>
		<path class="st0" d="M89.3,49.5L78.4,27.9v-5H79c1,0,1.8-0.8,1.8-1.8v-7.2c0-1-0.8-1.8-1.8-1.8H53c-1,0-1.8,0.8-1.8,1.8v7.2
			c0,1,0.8,1.8,1.8,1.8h0.6v5L42.7,49.5c-1.3,2.6-2.4,7-2.4,9.9v58.9c0,3.6,3,6.6,6.6,6.6H85c3.6,0,6.6-3,6.6-6.6V59.4
			C91.6,56.4,90.6,52.1,89.3,49.5L89.3,49.5z M54.8,15.7h22.4v3.6H54.8V15.7z M57,29.1c0.1-0.3,0.2-0.5,0.2-0.8v-5.4h17.6v5.4
			c0,0.3,0.1,0.6,0.2,0.8l6.8,13.6c-1.3,0.4-2.2,1.1-3,1.7c-1.1,0.8-1.8,1.4-3.6,1.4c-1.7,0-2.5-0.6-3.6-1.4
			c-1.2-0.9-2.8-2.1-5.7-2.1c-2.9,0-4.5,1.2-5.7,2.1c-1.1,0.8-1.8,1.4-3.6,1.4c-1.7,0-2.5-0.6-3.6-1.4c-0.8-0.6-1.7-1.3-3-1.7
			L57,29.1z M88,118.3c0,1.7-1.3,3-3,3H47c-1.7,0-3-1.3-3-3V59.4c0-2.4,0.9-6.2,2-8.3l2.6-5.1c1,0.2,1.7,0.7,2.5,1.3
			c1.2,0.9,2.8,2.1,5.7,2.1c2.9,0,4.5-1.2,5.7-2.1c1.1-0.8,1.8-1.4,3.6-1.4c1.7,0,2.5,0.6,3.6,1.4c1.2,0.9,2.8,2.1,5.7,2.1
			c2.9,0,4.5-1.2,5.7-2.1c0.8-0.6,1.5-1.1,2.5-1.3l2.6,5.1c1.1,2.1,2,5.9,2,8.3V118.3z M88,118.3"/>
		<path class="st0" d="M49.4,106.9c-1,0-1.8,0.8-1.8,1.8v7.2c0,1,0.8,1.8,1.8,1.8c1,0,1.8-0.8,1.8-1.8v-7.2
			C51.2,107.7,50.4,106.9,49.4,106.9L49.4,106.9z M49.4,106.9"/>
		<path class="st0" d="M51.6,51.9c-0.9-0.4-2-0.1-2.4,0.8c-0.8,1.6-1.6,4.9-1.6,6.6v42.1c0,1,0.8,1.8,1.8,1.8c1,0,1.8-0.8,1.8-1.8
			V59.4c0-1.2,0.6-3.9,1.2-5C52.8,53.4,52.5,52.4,51.6,51.9L51.6,51.9z M51.6,51.9"/>
		<path class="st0" d="M62.6,30.1h6.8c1,0,1.8-0.8,1.8-1.8s-0.8-1.8-1.8-1.8h-6.8c-1,0-1.8,0.8-1.8,1.8S61.6,30.1,62.6,30.1
			L62.6,30.1z M62.6,30.1"/>
	</g>
</g>
</svg>
