<?xml version="1.0" encoding="utf-8"?>
<!-- Generator: Adobe Illustrator 21.0.0, SVG Export Plug-In . SVG Version: 6.00 Build 0)  -->
<svg version="1.1" id="Layer_1" xmlns="http://www.w3.org/2000/svg" xmlns:xlink="http://www.w3.org/1999/xlink" x="0px" y="0px"
	 viewBox="0 0 132 137" style="enable-background:new 0 0 132 137;" xml:space="preserve">
<style type="text/css">
	.st0{fill:#FFFFFF;}
</style>
<g>
	<path class="st0" d="M92.8,70.9H39.2c-1.3,0-2.4-1.1-2.4-2.4s1.1-2.4,2.4-2.4h53.6c1.3,0,2.4,1.1,2.4,2.4
		C95.2,69.8,94.1,70.9,92.8,70.9z"/>
	<path class="st0" d="M92.8,53H39.2c-1.3,0-2.4-1.1-2.4-2.4s1.1-2.4,2.4-2.4h53.6c1.3,0,2.4,1.1,2.4,2.4S94.1,53,92.8,53z"/>
	<path class="st0" d="M92.8,88.7H39.2c-1.3,0-2.4-1.1-2.4-2.4s1.1-2.4,2.4-2.4h53.6c1.3,0,2.4,1.1,2.4,2.4S94.1,88.7,92.8,88.7z"/>
</g>
</svg>
