<?xml version="1.0" encoding="utf-8"?>
<!-- Generator: Adobe Illustrator 21.0.0, SVG Export Plug-In . SVG Version: 6.00 Build 0)  -->
<svg version="1.1" id="Layer_1" xmlns="http://www.w3.org/2000/svg" xmlns:xlink="http://www.w3.org/1999/xlink" x="0px" y="0px"
	 viewBox="0 0 132 137" style="enable-background:new 0 0 132 137;" xml:space="preserve">
<style type="text/css">
	.st0{fill:#FFFFFF;}
</style>
<g>
	<path class="st0" d="M109.8,42.8c-0.2-0.3-0.5-0.4-0.9-0.5l-71.2-5.7c-0.1-1-0.4-1.9-1.2-2.7l-7.7-7.5c-0.8-0.8-1.8-1.2-2.9-1.2
		c-1.1,0-2.1,0.4-2.8,1.2c-0.8,0.8-1.2,1.8-1.2,2.9s0.4,2.1,1.2,2.8l7.7,7.5c0.8,0.8,1.8,1.2,2.9,1.2c0.4,0,0.8-0.1,1.2-0.2L46,76.3
		c0.9,2.9,3.6,4.8,6.5,4.8c0.2,0,0.3,0,0.5,0l48.7-4.1c2.6-0.2,4.6-2.2,4.9-4.8l3.4-28.4C110.1,43.4,110,43.1,109.8,42.8z M106.5,52
		l-9.2-0.2l0.5-7.7l9.5,0.8L106.5,52z M105.2,63.1l-8.7,0.3l0.6-9l9.1,0.2L105.2,63.1z M83.3,75.9l0.2-9.5L93.7,66l-0.6,9L83.3,75.9
		z M71.6,76.9l-0.7-10.1l10-0.3l-0.2,9.7L71.6,76.9z M60.4,77.8l-2.1-10.6l9.9-0.3L69,77.1L60.4,77.8z M41.4,52.9l11.6,0.3l2.3,11.5
		l-10,0.3L41.4,52.9z M55.6,53.2l11.7,0.3l0.8,10.7l-10.3,0.3L55.6,53.2z M66.4,41.5l0.7,9.4l-12.1-0.3l-2-10.2L66.4,41.5z
		 M81.1,51.3L69.7,51L69,41.8l12.2,1L81.1,51.3z M83.8,42.9l11.5,0.9l-0.5,7.8l-11.1-0.3L83.8,42.9z M81,53.9l-0.2,10l-10.2,0.3
		l-0.8-10.6L81,53.9z M83.5,63.8l0.2-9.8l10.9,0.3l-0.6,9.2L83.5,63.8z M32.6,37.9l-7.7-7.5c-0.3-0.3-0.4-0.6-0.4-1
		c0-0.4,0.1-0.8,0.4-1c0.3-0.3,0.6-0.4,1-0.4c0.4,0,0.8,0.1,1,0.4l7.7,7.5c0.6,0.6,0.6,1.5,0,2.1c-0.3,0.3-0.6,0.4-1,0.4
		C33.2,38.3,32.9,38.2,32.6,37.9z M50.4,40.3l2,10.3l-11.9-0.3l-3.5-11.1L50.4,40.3z M52.8,78.4c-2,0.2-3.8-1-4.4-2.9L46,67.6
		l9.7-0.3L57.8,78L52.8,78.4z M101.5,74.4l-5.8,0.5l0.6-8.9l8.5-0.3l-0.7,6.2C104,73.2,102.9,74.3,101.5,74.4z"/>
	<path class="st0" d="M101.1,97.4c0.7,0,1.3-0.6,1.3-1.3c0-0.7-0.6-1.3-1.3-1.3l-53.7,0.6c-0.5,0-1-0.2-1.2-0.6
		c-0.3-0.4-0.3-0.9-0.1-1.4l3.6-8.5c0.3-0.7,0-1.4-0.7-1.7c-0.7-0.3-1.4,0-1.7,0.7l-3.6,8.5c-0.5,1.3-0.4,2.7,0.4,3.8
		c0.8,1.1,2,1.8,3.4,1.8l1.4,0l0,3.1c-2.4,0.6-4.1,2.8-4.1,5.3c0,3,2.5,5.4,5.5,5.4c3,0,5.4-2.5,5.4-5.5c0-2.5-1.8-4.7-4.2-5.2
		l0-3.1l44.3-0.5l0,3.1c-2.4,0.6-4.1,2.8-4.1,5.3c0,3,2.5,5.4,5.5,5.4c3,0,5.4-2.5,5.4-5.5c0-2.5-1.8-4.7-4.2-5.2l0-3.1L101.1,97.4
		L101.1,97.4z M53,106.2c0,1.6-1.2,2.9-2.8,2.9c-1.6,0-2.9-1.2-2.9-2.8c0-1.6,1.2-2.9,2.8-2.9C51.7,103.4,53,104.7,53,106.2z
		 M99.9,105.7c0,1.6-1.2,2.9-2.8,2.9c-1.6,0-2.9-1.2-2.9-2.8c0-1.6,1.2-2.9,2.8-2.9C98.6,102.9,99.9,104.2,99.9,105.7z"/>
</g>
</svg>
