<?xml version="1.0" encoding="utf-8"?>
<!-- Generator: Adobe Illustrator 21.0.0, SVG Export Plug-In . SVG Version: 6.00 Build 0)  -->
<svg version="1.1" id="Layer_1" xmlns="http://www.w3.org/2000/svg" xmlns:xlink="http://www.w3.org/1999/xlink" x="0px" y="0px"
	 viewBox="0 0 132 137" style="enable-background:new 0 0 132 137;" xml:space="preserve">
<style type="text/css">
	.st0{fill:#FFFFFF;}
</style>
<g>
	<path class="st0" d="M99,68.5c0-18.2-14.8-33-33-33s-33,14.8-33,33c0,9.6,4.1,18.3,10.7,24.3l0,0l1.1,0.9c0.1,0.1,0.1,0.1,0.2,0.2
		c0.6,0.5,1.2,0.9,1.8,1.3c0.2,0.1,0.4,0.3,0.6,0.4c0.6,0.4,1.3,0.9,2,1.3c0.1,0.1,0.3,0.2,0.4,0.3c0.7,0.4,1.5,0.8,2.3,1.2
		c0.1,0,0.1,0.1,0.2,0.1c2.5,1.2,5.2,2,8,2.5c0.1,0,0.1,0,0.2,0c0.9,0.2,1.7,0.3,2.6,0.4c0.1,0,0.2,0,0.3,0c0.9,0.1,1.8,0.1,2.7,0.1
		c0.9,0,1.8,0,2.7-0.1c0.1,0,0.2,0,0.3,0c0.9-0.1,1.8-0.2,2.6-0.3c0.1,0,0.2,0,0.2,0c2.8-0.5,5.4-1.3,7.9-2.5c0.1,0,0.2-0.1,0.3-0.1
		c0.7-0.4,1.5-0.7,2.2-1.1c0.2-0.1,0.4-0.2,0.5-0.3c0.6-0.4,1.3-0.8,1.9-1.2c0.2-0.1,0.4-0.3,0.7-0.5c0.5-0.4,1-0.8,1.5-1.2
		c0.1-0.1,0.2-0.2,0.3-0.3l1.1-0.9l0,0C94.8,86.9,99,78.2,99,68.5L99,68.5z M35.4,68.5c0-16.9,13.7-30.6,30.6-30.6
		s30.6,13.7,30.6,30.6c0,9.1-4,17.3-10.3,22.9c-0.4-0.2-0.7-0.5-1.1-0.6l-10.2-5.1c-0.9-0.5-1.5-1.4-1.5-2.4v-3.6
		c0.2-0.3,0.5-0.6,0.7-1c1.3-1.9,2.4-3.9,3.1-6.1c1.5-0.7,2.5-2.2,2.5-3.9v-4.3c0-1-0.4-2-1.1-2.8v-5.6c0.1-0.6,0.3-4.1-2.3-7
		c-2.2-2.5-5.8-3.8-10.6-3.8c-4.9,0-8.4,1.3-10.6,3.8c-2.5,2.9-2.3,6.4-2.3,7v5.6c-0.7,0.8-1.1,1.8-1.1,2.8v4.3
		c0,1.3,0.6,2.6,1.6,3.4c1,3.8,3,6.7,3.7,7.7v3.5c0,1-0.5,1.9-1.4,2.4l-9.5,5.2c-0.3,0.2-0.6,0.4-0.9,0.6
		C39.3,85.7,35.4,77.5,35.4,68.5L35.4,68.5z M84,93.3c-0.4,0.3-0.9,0.6-1.3,0.9c-0.2,0.1-0.4,0.3-0.6,0.4c-0.6,0.4-1.1,0.7-1.7,1
		c-0.1,0.1-0.3,0.1-0.4,0.2c-1.4,0.7-2.8,1.3-4.2,1.8c0,0-0.1,0-0.2,0.1c-0.7,0.3-1.5,0.5-2.3,0.7h0c-0.8,0.2-1.6,0.4-2.4,0.5
		c0,0,0,0-0.1,0c-0.7,0.1-1.5,0.2-2.2,0.3c-0.1,0-0.3,0-0.4,0c-0.7,0.1-1.5,0.1-2.2,0.1c-0.8,0-1.5,0-2.3-0.1c-0.1,0-0.3,0-0.4,0
		c-0.8-0.1-1.5-0.2-2.3-0.3l-0.1,0c-1.6-0.3-3.1-0.7-4.7-1.2c0,0-0.1,0-0.1-0.1c-0.8-0.3-1.5-0.5-2.2-0.9c0,0,0,0,0,0
		c-0.7-0.3-1.4-0.6-2-1c-0.1,0-0.2-0.1-0.3-0.1c-0.6-0.3-1.2-0.7-1.8-1c-0.2-0.1-0.4-0.2-0.5-0.3c-0.5-0.4-1.1-0.7-1.6-1.1
		c-0.1,0-0.1-0.1-0.2-0.1l0.1-0.1l9.5-5.2c1.6-0.9,2.6-2.6,2.6-4.5v-4.3l-0.3-0.3c0,0-2.6-3.2-3.6-7.5l-0.1-0.5l-0.4-0.3
		c-0.6-0.4-0.9-1-0.9-1.7v-4.3c0-0.6,0.2-1.1,0.7-1.5l0.4-0.4v-6.7l0-0.2c0,0-0.4-2.9,1.7-5.2c1.7-2,4.7-3,8.8-3c4.1,0,7.1,1,8.8,3
		c2,2.3,1.7,5.2,1.7,5.3l0,6.8l0.4,0.4c0.4,0.4,0.7,0.9,0.7,1.5v4.3c0,0.9-0.6,1.6-1.4,1.9l-0.6,0.2l-0.2,0.6c-0.7,2.2-1.7,4.2-3,6
		c-0.3,0.4-0.6,0.8-0.9,1.1l-0.3,0.3v4.4c0,1.9,1.1,3.7,2.8,4.5l10.2,5.1c0.1,0,0.1,0.1,0.2,0.1C84.2,93.1,84.1,93.2,84,93.3
		L84,93.3z M84,93.3"/>
</g>
</svg>
